<?xml version="1.0" encoding="utf-8"?>
<!-- Generator: Adobe Illustrator 24.0.0, SVG Export Plug-In . SVG Version: 6.00 Build 0)  -->
<svg version="1.1" id="Layer_1" xmlns="http://www.w3.org/2000/svg" xmlns:xlink="http://www.w3.org/1999/xlink" x="0px" y="0px"
	 viewBox="0 0 371.7 511.1" style="enable-background:new 0 0 371.7 511.1;" xml:space="preserve">
<style type="text/css">
	.st0{fill:#FFFFFF;}
	.st1{fill:#FCC186;}
	.st2{fill:#3D6C91;}
	.st3{fill:#204962;}
	.st4{fill:#FAA960;}
	.st5{fill:#3D6D92;}
	.st6{fill:#234A64;}
	.st7{fill:#4B2F12;}
	.st8{fill:#D9D9D8;}
	.st9{fill:#FCC187;}
	.st10{fill:#010101;}
	.st11{fill:#B1D3EC;}
	.st12{fill:#CC4027;}
	.st13{fill:#F37873;}
</style>
<path class="st0" d="M253.7,381c3.8,24.1,8,47,10.9,62.3c1.1,1.3,2,2.6,2.8,4c10.1,8,15.5,20.1,16.3,30.7l1.9,23.3l-23.2,2.8
	c-4.9,0.6-9.6,0.9-14.1,0.9c-8.5,0-15.3-1-20.3-2.2c-3.9,0.6-8,1.1-12.4,1.5c-5.4,2.7-15.8,6.8-28.4,6.8c-9.5,0-18.8-2.4-27-7
	c-11.6-0.8-20.7-1.8-24.7-2.3l-1.5-0.2l-26.3-3.1l5.5-25.9c0.1-0.3,5.6-27.2,6.2-55c0.1-5.4,0.4-13.7,0.8-24.6l-30.4-9.4l-5.8,8.4
	L0,353.8l35.4-87l10.9,6.2L90.1,261l19.8,24l6.9-7c-2.4-4.4-4.5-8.9-6.3-13.5c-9.5-25.2-10.4-57.9-9.8-78.1
	c-5.9-2.4-11.2-6.2-14.9-12.7c-4.4-7.7-4.9-16.8-1.2-25.1c3.6-8.2,10.8-14.4,21.2-22.4c0.1-0.5,0.1-1,0.2-1.5
	c0.1-0.8,0.2-1.6,0.2-2.4l0.1-0.9l0-0.2c0.1-1.5,0.3-3.2,0.4-4.8l0-0.3c0.1-0.9,0.1-1.8,0.2-2.7l0-0.4c0.1-2.1,0.3-4.2,0.3-6.4
	l0-0.6c0-0.9,0.1-1.8,0.1-2.8l0-0.6c0-1.1,0.1-2.3,0.1-3.4c0.1-6.1,0-11.9-0.4-17.3c-1.3,0.3-2.6,0.6-4,0.8c-0.8,0.1-1.5,0.2-2,0.2
	c-0.5,0-1.3,0.1-2.1,0.1h-0.3l-0.4,0c-1,0-1.8-0.1-2.4-0.2c-0.7-0.1-1.6-0.2-2.7-0.4c-1.2-0.2-2.1-0.5-2.7-0.7
	c-0.6-0.2-1.4-0.4-2.4-0.8c-0.9-0.4-1.9-0.8-2.8-1.3l-0.2-0.1c-0.6-0.3-1.1-0.6-1.6-1c-1-0.6-1.9-1.3-2.8-2l-0.1-0.1
	c-0.3-0.3-0.7-0.6-1-0.8c-1-0.9-1.9-1.9-2.7-2.9l-0.4-0.4l-0.3-0.3c-9.8-12.5-7.6-30.9,4.9-41c16.4-13.2,43.9-27.8,68.4-30.5
	c1.7-0.2,3.4-0.3,5.1-0.3c17.1,0,30.2,9.5,38.3,21.6c8.8,2.4,16.4,7.9,21.7,16c0.9,1.3,1.7,2.7,2.6,4.1l0.2,0.3
	c1.6,2.6,3.3,5.5,5,8.5l0.1,0.1c5.8,10.3,11.8,22.6,17.8,36.6l0.1,0.2c4.7,10.9,8.6,20.9,11.3,27.9c2.3,1,4.6,2,6.8,3.1
	c13.3,6.9,20.3,16.2,20.6,27.7c0.1,4.3-0.8,18.8-17.8,26.8l-1,0.6l-1.4,0.5c0.1,4.5,0.2,9.8,0.4,15.6l1.9,17.1l15.9-0.7l-0.2,25.5
	c-0.1,8.1-3.5,16.9-10.4,26.3l1,15.2l50.5-25l42.2,25.3l11.5,44.4L354,348.4l-8.4,0.7l-56.4,33.5L253.7,381z"/>
<g>
	<polygon class="st1" points="302,298.8 318.2,282.9 325.2,287.8 318.1,296.9 341.4,297.3 345.7,314.1 339.3,325.4 314.1,327.6 	"/>
	<g>
		<polygon class="st2" points="228.7,286.3 269.8,308.6 284,293.7 283.6,292.2 302.4,282.9 317.5,338.5 297.1,350.2 294.7,340.2 
			270.1,352.7 227.5,295.7 		"/>
		<polygon class="st3" points="285.5,344.8 294.7,340.2 284,293.7 277.5,300.5 		"/>
		<circle class="st4" cx="303" cy="331.9" r="3.9"/>
	</g>
</g>
<g>
	<path class="st5" d="M149.9,275c0,0-5.7,112.6-6.3,143.1c-0.7,30.5-6.7,59.4-6.7,59.4s81.4,10.6,108.6-5.3
		c0,0-21.6-102.9-24.9-163.7c-6-32.2-13.6-30.2-13.6-30.2L161.2,261L149.9,275z"/>
	<path class="st6" d="M160.7,307.1v-45.4l0.6-0.7l45.7,17.2c2,1.6,4,3.2,5.7,4.6c2.5,4,5.4,11.6,8,25.7c0.5,9.2,1.4,19.3,2.6,29.9
		l-9.9-5.5v15.7l-31.7-36.7v11.8L160.7,307.1z"/>
	<path class="st6" d="M143.6,418.1c0.7-30.5,6.3-143.1,6.3-143.1l8.3-10.2l9.4,15.4c0,0,2.9,122.1-2.6,200
		c-16.2-1-28.1-2.6-28.1-2.6S143,448.6,143.6,418.1z"/>
	<path class="st6" d="M227.7,371.9l-63.9-1.9l0.1,6.5l64.6,1.1C228.3,375.7,228,373.8,227.7,371.9z"/>
	<g>
		<path class="st4" d="M228.1,374.4c-0.1,0-0.1,0-0.2,0l-82.3-4c-1.7-0.1-3-1.5-2.9-3.2c0.1-1.7,1.6-3,3.2-2.9l82.3,4
			c1.7,0.1,3,1.5,2.9,3.2C231.1,373.1,229.7,374.4,228.1,374.4z"/>
	</g>
	<path class="st5" d="M238.3,456.1c0,0,10.5-0.5,9.3,9.6c-1.2,10.1-17.8,4-17.8,4L238.3,456.1z"/>
	<path class="st7" d="M229.2,477.7c0,0,9.8,4.8,30.4,2.4c0,0-1.3-15.9-16.5-17C229.8,461,229.2,477.7,229.2,477.7z"/>
	<path class="st7" d="M206.6,481.6c0,0-19,11.7-36.5,0.1c0,0-0.3-15.4,15-16.5C203.9,464.4,206.6,481.6,206.6,481.6z"/>
	<g>
		<path class="st4" d="M193.2,402.8c-1.5,0-2.8-1.1-3-2.7c-2.6-19.2,3.3-30.8,3.5-31.3c0.8-1.5,2.6-2.1,4.2-1.3
			c1.5,0.8,2.1,2.6,1.3,4.1c-0.1,0.2-5.2,10.5-2.9,27.6c0.2,1.7-0.9,3.2-2.6,3.5C193.5,402.8,193.3,402.8,193.2,402.8z"/>
	</g>
	<g>
		<path class="st4" d="M207.6,410.3c-1,0-2-0.5-2.6-1.4c-11.6-17.9-8.7-38-8.5-38.8c0.3-1.7,1.8-2.8,3.5-2.6
			c1.7,0.3,2.8,1.8,2.6,3.5l0,0c0,0.2-2.7,18.6,7.6,34.5c0.9,1.4,0.5,3.3-0.9,4.3C208.8,410.1,208.2,410.3,207.6,410.3z"/>
	</g>
</g>
<g>
	<path class="st1" d="M80.7,308.4c-0.2-0.1-22.3-14.5-22.3-14.5l-6.4,4l13,13.5l-18.9-10.8l-2.8,5.8l1.5,1.1l-1.2,11.4l15.2,12.4
		L80.7,308.4z"/>
	<polygon class="st2" points="156,283.6 150.9,278 107.5,322 104.7,319 105.5,317.7 88.6,297.4 41.5,345.9 75.5,361.4 79.8,355 
		113.9,365.5 	"/>
	<circle class="st4" cx="73.2" cy="333.2" r="3.9"/>
	<circle class="st4" cx="63.8" cy="343.5" r="3.9"/>
	<polygon class="st3" points="90.8,358.4 107.5,322 104.7,319 79.8,355 	"/>
</g>
<g>
	<path class="st8" d="M232.6,168.4l7,63.5l13-0.5c-0.1,6.5-11,18.6-11,18.6l3.9,57.6l-11.1-7.5c0,0,3.2,29.6,7.8,39.5
		c0,0-26.4-16.9-36.4-29l1.4,14.5c0,0-22.5-19.6-27.7-30.5l-1.8,8.6c0,0-32.3-14.4-44.6-47.1c-12.3-32.7-7.4-85.2-7.4-85.2
		S190.3,125.6,232.6,168.4z"/>
	<path class="st0" d="M234.4,160.8c0,0,1.6,56.2,1.6,82.4c0,26.1,1.8,51.4,1.8,51.4s-7.1-7.5-10.2-12c0,0-1.8,28.8,4.4,42.5
		c0,0-24.3-16.4-33.2-31.9l1.3,12.4c0,0-17.3-15.1-24.4-34.5l-1.8,13.2c0,0-25.6-6.6-37.6-36.7c-12-30.1-13.3-80.4-7.1-96.3
		c6.2-15.9,41.6-23.7,58.4-22.4C204.5,130.3,231.7,143.1,234.4,160.8z"/>
	<path class="st9" d="M224.2,166.2c0,0,3.3,44.7,3.3,58c0,13.3-8,6.6-8,6.6s8.9,23-8,27c-16.8,4-34.5,2.2-42.9-7.1
		c-8.4-9.3-0.4-15.3-0.4-15.3l-10.4,2.3c0,0-12.7-53-2.5-69.4C165.6,152,213.6,145.8,224.2,166.2z"/>
	<path class="st4" d="M224.2,166.2c0,0,3.3,44.7,3.3,58c0,13.3-8,6.6-8,6.6s8.9,23-8,27c-4.4,1-8.8,1.7-13.1,1.9l-0.9-39.5
		l-2.4-66.9C209.8,153.3,220.5,159,224.2,166.2z"/>
	<polygon class="st0" points="227.5,185.9 226.9,178.3 206.7,176.4 207.2,183 	"/>
	<polygon class="st0" points="185.7,177.4 186.1,184.1 161.6,188.2 161.2,181 	"/>
	<path class="st10" d="M170.3,196.8c0,3.5,2.9,6.4,6.4,6.4c3.5,0,6.4-2.9,6.4-6.4c0-3.5-2.9-6.4-6.4-6.4
		C173.1,190.4,170.3,193.2,170.3,196.8z"/>
	<path class="st10" d="M207.4,197.2c0,3.5,2.9,6.4,6.4,6.4c3.5,0,6.4-2.9,6.4-6.4c0-3.5-2.9-6.4-6.4-6.4
		C210.3,190.8,207.4,193.7,207.4,197.2z"/>
	<path class="st0" d="M244.4,236.3c0,0-11.4,2.3-20.4-4.7c-14-10.9-26.9-3-26.9-3l-1.9,34.6C195.3,263.2,222.1,263.4,244.4,236.3z"
		/>
	<path class="st0" d="M200.6,231.9l-3.5-3.3c0,0-10-8-19.5-1.8c-13.4,8.7-26.6,6.1-26.6,6.1s32.6,43.2,47.7,29.3
		C202.2,256.7,200.6,231.9,200.6,231.9z"/>
	<polygon class="st9" points="194.7,154.8 204.2,232.9 191.3,225.5 191.3,213.6 190.4,156.3 	"/>
	<path class="st0" d="M205.4,149.8c0,0-11.1,11.5-21.7,16.8c-10.6,5.3-21.3,5.3-21.3,5.3s6.2-11.5,0.4-17.7
		C157.1,148,197,140.9,205.4,149.8z"/>
</g>
<g>
	<path class="st5" d="M232.8,134.1c0,0-18.2-52.5-38.3-83.1c-6.4-9.7-17-5.4-17-5.4s-5.5-23.2-25.2-21.1
		c-19.6,2.1-42.8,14.7-55.7,25.2c-3.9,3.1-1.9,10.4,4.6,8.5c11.2-3.2,27-3.5,27.7,0.1c6.4,33.6,1.1,72.8-0.2,81.1
		c-4.6,3.9-19.5,13.9-21.8,19.1c-3,6.8,12.1,7.5,21.9,8.7l2.4-11.1c0,0,16.4-13.7,55.5-12.6c39.1,1.1,46.4,6.9,50.8,11.2
		C270.9,149,248.6,139.7,232.8,134.1z"/>
	<path class="st6" d="M239.7,154.3c0.4-0.1,0.8-0.2,1.2-0.2c0.1,0,0.3-0.1,0.4-0.1c0.4-0.1,0.8-0.2,1.2-0.3c0.1,0,0.2,0,0.3-0.1
		c0.5-0.1,0.9-0.2,1.4-0.3h0c2.5-0.6,4.5-1.2,6.1-1.9c-17.3-17.6-77.5-16.8-97.6-14.7c-4.9,0.5-5.3-5.3-1.1-5.7
		c8.2-0.7,49.2-3.8,49.2-3.8c-19.5-4.2-38.9-4.6-38.9-4.6c-6.9-15.6-13.4-58.8-13.4-58.8c-12.2,9.9-6.5-13.4-20.2-14.5
		c-10.8-0.9-23.6,3.7-33,7c1,1.7,3,2.7,5.9,1.9c11.2-3.2,27-3.5,27.7,0.1c6.4,33.6,1.1,72.8-0.2,81.1c-4.6,3.9-19.5,13.9-21.8,19.1
		c-3,6.8,12.1,7.5,21.9,8.7l2.4-11.1c0,0,16.4-13.7,55.5-12.6c39.1,1.1,46.4,6.9,50.8,11.2c0.6-0.1,1.2-0.2,1.7-0.3
		C239.4,154.3,239.5,154.3,239.7,154.3z"/>
	<path class="st11" d="M148.1,117.6c-0.3-4-3.3-7.1-7-7.7c0.2-0.9,0.3-1.8,0.2-2.7c-0.3-4.6-4.4-8.1-9-7.8c-0.1,0-0.3,0-0.4,0.1
		c-0.2,10.8-0.9,20.5-1.7,27.9l10.1-0.7C144.9,126.2,148.4,122.2,148.1,117.6z"/>
	<path class="st11" d="M194.9,65.4l8.7,1.1c-3-5.5-6-10.8-9.2-15.5c-0.4-0.7-0.9-1.3-1.4-1.8c-2.9,1-5.1,3.6-5.5,6.9
		C187,60.6,190.3,64.8,194.9,65.4z"/>
	<path class="st11" d="M132,42.7c3.1,3.4,8.5,3.7,11.9,0.5c2.9-2.7,3.5-7,1.7-10.3c0.8-0.4,1.6-0.8,2.3-1.5c2-1.8,2.8-4.3,2.7-6.8
		c-8.8,1.2-18.3,4.4-27.2,8.6L132,42.7z"/>
	<path class="st11" d="M209.7,119.6l19.6,5.1c-2.6-6.8-6.4-16.8-11.1-27.6c-2.9-0.2-5.5,1.7-6.3,4.6c-0.1,0.5-0.2,1-0.2,1.5
		c-3.7,0-7.1,2.6-8.1,6.3C202.5,113.8,205.2,118.4,209.7,119.6z"/>
	<path class="st11" d="M180.7,80.2c0.3-0.8,0.4-1.7,0.4-2.6c0-4.6-3.7-8.3-8.3-8.3c-3.5,0-6.5,2.2-7.7,5.3c-1.1-1.1-2.6-1.8-4.2-1.8
		c-3.3,0-6,2.7-6,6c0,0.5,0.1,1,0.2,1.4c-3.5,1-6.1,4.2-6.1,8c0,4.6,3.7,8.3,8.3,8.3h21.5c4.6,0,8.3-3.7,8.3-8.3
		C187.1,84.4,184.4,81.1,180.7,80.2z"/>
</g>
<g>
	<path class="st9" d="M162.9,206.4c0,0,5.1-6.2,13.1-6.2c7.9,0,15.2,3.5,15.2,3.5l-2.7,15.5l-24.5,0.5L162.9,206.4z"/>
	<path class="st4" d="M204.9,204.7c0,0,0.9-2.9,8.9-2.9c8.1,0,9.2,3.9,9.2,3.9l-1.2,7.1c0,0-8.7,3.2-9.5,3.3
		c-0.8,0.1-7.7-0.8-7.7-0.8L204.9,204.7z"/>
</g>
<g>
	<g>
		<path class="st12" d="M215.7,258.2c0,0-15-5.5-32.2-1.6c0,0,2.5-12.8,14.9-13.7C210.7,241.9,215.7,258.2,215.7,258.2z"/>
	</g>
	<path class="st13" d="M198,255.2c-4.4-0.1-9.3,0.2-14.5,1.4c0,0,0.8-3.8,3.5-7.5C191.9,249.4,195.9,251.8,198,255.2z"/>
</g>
</svg>
